<svg width="70" height="82" viewBox="0 0 70 82" fill="none" xmlns="http://www.w3.org/2000/svg"> <path d="M35 71.135C43.8958 63.4817 50.4948 56.5287 54.7969 50.2762C59.099 44.0237 61.25 38.4717 61.25 33.62C61.25 26.1717 58.7161 20.0729 53.6484 15.3237C48.5807 10.5746 42.3646 8.2 35 8.2C27.6354 8.2 21.4193 10.5746 16.3516 15.3237C11.2839 20.0729 8.75 26.1717 8.75 33.62C8.75 38.4717 10.901 44.0237 15.2031 50.2762C19.5052 56.5287 26.1042 63.4817 35 71.135ZM35 82C23.2604 72.6383 14.4922 63.9429 8.69531 55.9137C2.89844 47.8846 0 40.4533 0 33.62C0 23.37 3.51823 15.2042 10.5547 9.1225C17.5911 3.04083 25.7396 0 35 0C44.2604 0 52.4089 3.04083 59.4453 9.1225C66.4818 15.2042 70 23.37 70 33.62C70 40.4533 67.1016 47.8846 61.3047 55.9137C55.5078 63.9429 46.7396 72.6383 35 82Z" fill="white"/> <path d="M22.2143 49.2706C19.6036 49.2706 17.4152 48.364 15.6491 46.551C13.883 44.7379 13 42.4912 13 39.811C13 37.1308 13.8984 34.8842 15.6952 33.0711C17.492 31.258 19.665 30.3515 22.2143 30.3515C24.5793 30.3515 26.568 31.0767 28.1805 32.5272C29.793 33.9776 30.8143 35.775 31.2443 37.9191H32.4421L29.125 28.4596H25.9V24.6757H35.1143V28.4596H33.0871L33.7321 30.3515H42.5779L39.9057 22.7838H35.1143V19H39.9057C40.7043 19 41.4184 19.2207 42.048 19.6622C42.6777 20.1036 43.1307 20.7027 43.4071 21.4595L46.54 30.2569H48.0143C50.5636 30.2569 52.7366 31.1792 54.5334 33.0238C56.3302 34.8684 57.2286 37.0993 57.2286 39.7164C57.2286 42.3651 56.3379 44.6196 54.5564 46.48C52.775 48.3404 50.5943 49.2706 48.0143 49.2706C45.8029 49.2706 43.8602 48.5611 42.1863 47.1422C40.5123 45.7233 39.445 43.9102 38.9843 41.7029H31.2443C30.8143 43.8786 29.77 45.6838 28.1114 47.1185C26.4529 48.5532 24.4871 49.2706 22.2143 49.2706ZM22.2143 45.4868C23.4736 45.4868 24.5563 45.132 25.4623 44.4226C26.3684 43.7131 27.0057 42.8066 27.3743 41.7029H22.2143V37.9191H27.3743C27.0057 36.784 26.3684 35.8695 25.4623 35.1758C24.5563 34.4821 23.4736 34.1353 22.2143 34.1353C20.6479 34.1353 19.3348 34.6792 18.2752 35.7671C17.2155 36.8549 16.6857 38.2029 16.6857 39.811C16.6857 41.3876 17.2155 42.7277 18.2752 43.8313C19.3348 44.935 20.6479 45.4868 22.2143 45.4868ZM36.4043 37.9191H38.9843C39.1379 37.1939 39.3452 36.5159 39.6063 35.8853C39.8673 35.2547 40.2129 34.6713 40.6429 34.1353H35.0221L36.4043 37.9191ZM48.0143 45.4868C49.5807 45.4868 50.8938 44.935 51.9534 43.8313C53.013 42.7277 53.5429 41.3876 53.5429 39.811C53.5429 38.2029 53.013 36.8549 51.9534 35.7671C50.8938 34.6792 49.5807 34.1353 48.0143 34.1353H47.83L49.6729 39.1489L46.1714 40.4732L44.4207 35.4596C43.8064 35.9957 43.3304 36.6263 42.9925 37.3515C42.6546 38.0768 42.4857 38.8966 42.4857 39.811C42.4857 41.3876 43.0155 42.7277 44.0752 43.8313C45.1348 44.935 46.4479 45.4868 48.0143 45.4868Z" fill="#E3E3E3"/> </svg>